<mxfile host="app.diagrams.net" agent="Mozilla/5.0 (Windows NT 10.0; Win64; x64) AppleWebKit/537.36 (KHTML, like Gecko) Chrome/130.0.0.0 Safari/537.36" version="24.8.6">
  <diagram name="Page-1" id="eiAduXaFpWzIddIFIp0c">
    <mxGraphModel dx="1400" dy="630" grid="1" gridSize="10" guides="1" tooltips="1" connect="1" arrows="1" fold="1" page="1" pageScale="1" pageWidth="850" pageHeight="1100" math="0" shadow="0">
      <root>
        <mxCell id="0" />
        <mxCell id="1" parent="0" />
        <mxCell id="p6sfVAbOwuK4RK8bH7ia-1" value="" style="rounded=0;whiteSpace=wrap;html=1;" vertex="1" parent="1">
          <mxGeometry x="340" y="40" width="90" height="280" as="geometry" />
        </mxCell>
        <mxCell id="p6sfVAbOwuK4RK8bH7ia-2" value="" style="rounded=0;whiteSpace=wrap;html=1;" vertex="1" parent="1">
          <mxGeometry x="170" y="40" width="90" height="280" as="geometry" />
        </mxCell>
        <mxCell id="p6sfVAbOwuK4RK8bH7ia-3" value="" style="rounded=0;whiteSpace=wrap;html=1;" vertex="1" parent="1">
          <mxGeometry x="520" y="40" width="90" height="280" as="geometry" />
        </mxCell>
        <mxCell id="p6sfVAbOwuK4RK8bH7ia-4" value="Node-1" style="rounded=1;whiteSpace=wrap;html=1;" vertex="1" parent="1">
          <mxGeometry x="177.5" y="340" width="75" height="30" as="geometry" />
        </mxCell>
        <mxCell id="p6sfVAbOwuK4RK8bH7ia-5" value="Node-2" style="rounded=1;whiteSpace=wrap;html=1;" vertex="1" parent="1">
          <mxGeometry x="352.5" y="340" width="75" height="30" as="geometry" />
        </mxCell>
        <mxCell id="p6sfVAbOwuK4RK8bH7ia-6" value="Node-n" style="rounded=1;whiteSpace=wrap;html=1;" vertex="1" parent="1">
          <mxGeometry x="537.5" y="340" width="75" height="30" as="geometry" />
        </mxCell>
        <mxCell id="p6sfVAbOwuK4RK8bH7ia-7" value="" style="endArrow=none;dashed=1;html=1;dashPattern=1 3;strokeWidth=4;rounded=0;" edge="1" parent="1">
          <mxGeometry width="50" height="50" relative="1" as="geometry">
            <mxPoint x="465" y="355.38" as="sourcePoint" />
            <mxPoint x="505" y="355" as="targetPoint" />
          </mxGeometry>
        </mxCell>
        <mxCell id="p6sfVAbOwuK4RK8bH7ia-10" value="cache" style="rounded=0;whiteSpace=wrap;html=1;" vertex="1" parent="1">
          <mxGeometry x="170" y="250" width="90" height="20" as="geometry" />
        </mxCell>
        <mxCell id="p6sfVAbOwuK4RK8bH7ia-12" value="page" style="rounded=0;whiteSpace=wrap;html=1;" vertex="1" parent="1">
          <mxGeometry x="170" y="269" width="90" height="20" as="geometry" />
        </mxCell>
        <mxCell id="p6sfVAbOwuK4RK8bH7ia-13" value="" style="endArrow=none;html=1;rounded=0;exitX=1;exitY=0.5;exitDx=0;exitDy=0;entryX=0;entryY=0.5;entryDx=0;entryDy=0;" edge="1" parent="1" source="p6sfVAbOwuK4RK8bH7ia-4" target="p6sfVAbOwuK4RK8bH7ia-5">
          <mxGeometry width="50" height="50" relative="1" as="geometry">
            <mxPoint x="390" y="580" as="sourcePoint" />
            <mxPoint x="440" y="530" as="targetPoint" />
          </mxGeometry>
        </mxCell>
        <mxCell id="p6sfVAbOwuK4RK8bH7ia-14" value="" style="endArrow=none;html=1;rounded=0;exitX=1;exitY=0.5;exitDx=0;exitDy=0;" edge="1" parent="1" source="p6sfVAbOwuK4RK8bH7ia-5">
          <mxGeometry width="50" height="50" relative="1" as="geometry">
            <mxPoint x="510" y="490" as="sourcePoint" />
            <mxPoint x="460" y="355" as="targetPoint" />
          </mxGeometry>
        </mxCell>
        <mxCell id="p6sfVAbOwuK4RK8bH7ia-15" value="" style="endArrow=none;html=1;rounded=0;entryX=0;entryY=0.5;entryDx=0;entryDy=0;" edge="1" parent="1" target="p6sfVAbOwuK4RK8bH7ia-6">
          <mxGeometry width="50" height="50" relative="1" as="geometry">
            <mxPoint x="500" y="355" as="sourcePoint" />
            <mxPoint x="530" y="360" as="targetPoint" />
          </mxGeometry>
        </mxCell>
        <mxCell id="p6sfVAbOwuK4RK8bH7ia-16" value="home" style="rounded=0;whiteSpace=wrap;html=1;" vertex="1" parent="1">
          <mxGeometry x="170" y="230" width="90" height="20" as="geometry" />
        </mxCell>
        <mxCell id="p6sfVAbOwuK4RK8bH7ia-18" value="PGAS" style="rounded=0;whiteSpace=wrap;html=1;" vertex="1" parent="1">
          <mxGeometry x="191" y="400" width="409" height="90" as="geometry" />
        </mxCell>
        <mxCell id="p6sfVAbOwuK4RK8bH7ia-21" value="" style="endArrow=none;dashed=1;html=1;rounded=0;" edge="1" parent="1">
          <mxGeometry width="50" height="50" relative="1" as="geometry">
            <mxPoint x="120" y="159" as="sourcePoint" />
            <mxPoint x="660" y="160" as="targetPoint" />
          </mxGeometry>
        </mxCell>
        <mxCell id="p6sfVAbOwuK4RK8bH7ia-22" value="startaddr" style="text;html=1;align=center;verticalAlign=middle;whiteSpace=wrap;rounded=0;" vertex="1" parent="1">
          <mxGeometry x="100" y="130" width="60" height="30" as="geometry" />
        </mxCell>
        <mxCell id="p6sfVAbOwuK4RK8bH7ia-24" value="1" style="rounded=0;whiteSpace=wrap;html=1;direction=south;fillColor=#f5f5f5;fontColor=#333333;strokeColor=#666666;" vertex="1" parent="1">
          <mxGeometry x="191" y="400" width="20" height="90" as="geometry" />
        </mxCell>
        <mxCell id="p6sfVAbOwuK4RK8bH7ia-27" value="1" style="rounded=0;whiteSpace=wrap;html=1;direction=west;fillColor=#f5f5f5;fontColor=#333333;strokeColor=#666666;" vertex="1" parent="1">
          <mxGeometry x="170" y="138" width="90" height="20" as="geometry" />
        </mxCell>
        <mxCell id="p6sfVAbOwuK4RK8bH7ia-28" value="2" style="rounded=0;whiteSpace=wrap;html=1;direction=west;fillColor=#b1ddf0;strokeColor=#10739e;" vertex="1" parent="1">
          <mxGeometry x="340" y="117" width="90" height="20" as="geometry" />
        </mxCell>
        <mxCell id="p6sfVAbOwuK4RK8bH7ia-29" value="2" style="rounded=0;whiteSpace=wrap;html=1;direction=north;fillColor=#b1ddf0;strokeColor=#10739e;" vertex="1" parent="1">
          <mxGeometry x="211" y="400" width="20" height="90" as="geometry" />
        </mxCell>
        <mxCell id="p6sfVAbOwuK4RK8bH7ia-30" value="n" style="rounded=0;whiteSpace=wrap;html=1;direction=west;fillColor=#d0cee2;strokeColor=#56517e;" vertex="1" parent="1">
          <mxGeometry x="520" y="80" width="90" height="20" as="geometry" />
        </mxCell>
        <mxCell id="p6sfVAbOwuK4RK8bH7ia-31" value="n" style="rounded=0;whiteSpace=wrap;html=1;direction=north;fillColor=#d0cee2;strokeColor=#56517e;" vertex="1" parent="1">
          <mxGeometry x="260" y="400" width="20" height="90" as="geometry" />
        </mxCell>
        <mxCell id="p6sfVAbOwuK4RK8bH7ia-32" value="startaddr" style="text;html=1;align=center;verticalAlign=middle;whiteSpace=wrap;rounded=0;rotation=0;" vertex="1" parent="1">
          <mxGeometry x="131" y="490" width="60" height="30" as="geometry" />
        </mxCell>
        <mxCell id="p6sfVAbOwuK4RK8bH7ia-33" value="" style="endArrow=none;dashed=1;html=1;rounded=0;" edge="1" parent="1">
          <mxGeometry width="50" height="50" relative="1" as="geometry">
            <mxPoint x="191" y="520" as="sourcePoint" />
            <mxPoint x="191" y="470" as="targetPoint" />
          </mxGeometry>
        </mxCell>
        <mxCell id="p6sfVAbOwuK4RK8bH7ia-34" value="" style="endArrow=none;dashed=1;html=1;dashPattern=1 3;strokeWidth=2;rounded=0;" edge="1" parent="1">
          <mxGeometry width="50" height="50" relative="1" as="geometry">
            <mxPoint x="238" y="444.33" as="sourcePoint" />
            <mxPoint x="258" y="444.33" as="targetPoint" />
          </mxGeometry>
        </mxCell>
        <mxCell id="p6sfVAbOwuK4RK8bH7ia-35" value="n+1" style="rounded=0;whiteSpace=wrap;html=1;direction=west;fillColor=#f5f5f5;fontColor=#333333;strokeColor=#666666;" vertex="1" parent="1">
          <mxGeometry x="170" y="59" width="90" height="20" as="geometry" />
        </mxCell>
        <mxCell id="p6sfVAbOwuK4RK8bH7ia-36" value="n+1" style="rounded=0;whiteSpace=wrap;html=1;direction=north;fillColor=#f5f5f5;fontColor=#333333;strokeColor=#666666;" vertex="1" parent="1">
          <mxGeometry x="280" y="400" width="20" height="90" as="geometry" />
        </mxCell>
        <mxCell id="p6sfVAbOwuK4RK8bH7ia-37" value="" style="endArrow=none;dashed=1;html=1;rounded=0;" edge="1" parent="1">
          <mxGeometry width="50" height="50" relative="1" as="geometry">
            <mxPoint x="600" y="520" as="sourcePoint" />
            <mxPoint x="600" y="470" as="targetPoint" />
          </mxGeometry>
        </mxCell>
        <mxCell id="p6sfVAbOwuK4RK8bH7ia-38" value="startaddr+memsize" style="text;html=1;align=center;verticalAlign=middle;whiteSpace=wrap;rounded=0;rotation=0;" vertex="1" parent="1">
          <mxGeometry x="600" y="490" width="110" height="30" as="geometry" />
        </mxCell>
        <mxCell id="p6sfVAbOwuK4RK8bH7ia-40" value="home" style="rounded=0;whiteSpace=wrap;html=1;" vertex="1" parent="1">
          <mxGeometry x="340" y="230" width="90" height="20" as="geometry" />
        </mxCell>
        <mxCell id="p6sfVAbOwuK4RK8bH7ia-41" value="home" style="rounded=0;whiteSpace=wrap;html=1;" vertex="1" parent="1">
          <mxGeometry x="520" y="230" width="90" height="20" as="geometry" />
        </mxCell>
        <mxCell id="p6sfVAbOwuK4RK8bH7ia-42" value="cache" style="rounded=0;whiteSpace=wrap;html=1;" vertex="1" parent="1">
          <mxGeometry x="340" y="250" width="90" height="20" as="geometry" />
        </mxCell>
        <mxCell id="p6sfVAbOwuK4RK8bH7ia-43" value="cache" style="rounded=0;whiteSpace=wrap;html=1;" vertex="1" parent="1">
          <mxGeometry x="520" y="250" width="90" height="20" as="geometry" />
        </mxCell>
        <mxCell id="p6sfVAbOwuK4RK8bH7ia-44" value="page" style="rounded=0;whiteSpace=wrap;html=1;" vertex="1" parent="1">
          <mxGeometry x="340" y="270" width="90" height="20" as="geometry" />
        </mxCell>
        <mxCell id="p6sfVAbOwuK4RK8bH7ia-45" value="page" style="rounded=0;whiteSpace=wrap;html=1;" vertex="1" parent="1">
          <mxGeometry x="520" y="270" width="90" height="20" as="geometry" />
        </mxCell>
      </root>
    </mxGraphModel>
  </diagram>
</mxfile>
